<?xml version="1.0" encoding="utf-8"?>
<!-- Generator: Adobe Illustrator 24.3.0, SVG Export Plug-In . SVG Version: 6.00 Build 0)  -->
<svg version="1.1" id="Layer_1" xmlns="http://www.w3.org/2000/svg" xmlns:xlink="http://www.w3.org/1999/xlink" x="0px" y="0px"
	 viewBox="0 0 500 500" style="enable-background:new 0 0 500 500;" xml:space="preserve">
<style type="text/css">
	.st0{fill:#333333;}
	.st1{fill:#F1F2F2;}
</style>
<g>
	<polygon class="st0" points="91.55,133.66 109.34,133.66 109.34,115.42 149.16,115.42 149.16,133.66 166.95,133.66 166.95,94.29 
		55.56,94.29 55.56,115.42 91.55,115.42 	"/>
	<path class="st0" d="M149.14,142.95c-0.11,8.23-1.22,13.4-3.36,15.44c-2.26,2.15-8.09,3.22-17.5,3.22
		c-8.21,0-13.42-1.29-15.63-3.88c-1.93-2.26-3.01-7.19-3.25-14.79h-17.8l0.04,2.26c0,15.23,2.45,25.35,7.34,30.35
		c4.9,5,14.8,7.51,29.7,7.51c15.01,0,25.15-2.62,30.4-7.87c5.25-5.25,7.87-15.41,7.87-30.48v-1.77H149.14z"/>
</g>
<g>
	<polygon class="st0" points="76.94,219.54 92.53,219.54 92.53,204.6 138.31,219.54 166.95,219.54 166.95,207.37 55.56,170.33 
		55.56,192.69 76.94,199.62 	"/>
	<polygon class="st0" points="134.6,228.82 92.53,242.79 92.53,228.82 76.94,228.82 76.94,247.68 55.56,254.78 55.56,276.73 
		166.95,239.12 166.95,228.82 	"/>
</g>
<g>
	<polygon class="st0" points="73.35,326.31 73.35,302.86 149.16,302.86 149.16,326.31 166.95,326.31 166.95,281.72 55.56,281.72 
		55.56,326.31 	"/>
	<path class="st0" d="M149.12,335.59c-0.2,9.06-2.4,14.91-6.65,17.45c-4.46,2.66-14.91,4-31.33,4c-15.88,0-26.15-1.48-30.8-4.45
		c-4.23-2.7-6.51-8.38-6.9-17H55.56v1.53c0,17.57,3.96,28.86,11.87,33.86c7.92,5,25.77,7.51,53.57,7.51
		c17.03,0,28.94-3.11,35.74-9.34c6.8-6.23,10.2-17.12,10.2-32.68v-0.88H149.12z"/>
</g>
<g>
	<rect x="55.56" y="384.64" class="st0" width="111.38" height="6.66"/>
	<rect x="55.56" y="400.58" class="st0" width="111.38" height="5.19"/>
</g>
<g>
	<polygon class="st0" points="213.78,133.6 231.57,133.6 231.57,115.36 271.39,115.36 271.39,133.6 289.18,133.6 289.18,94.23 
		177.8,94.23 177.8,115.36 213.78,115.36 	"/>
	<path class="st0" d="M271.37,142.89c-0.11,8.23-1.22,13.4-3.36,15.44c-2.26,2.15-8.09,3.22-17.5,3.22
		c-8.21,0-13.42-1.29-15.63-3.88c-1.93-2.26-3.01-7.19-3.25-14.79h-17.8l0.04,2.26c0,15.23,2.45,25.35,7.34,30.35
		c4.9,5,14.8,7.51,29.7,7.51c15.01,0,25.15-2.62,30.4-7.87c5.25-5.25,7.87-15.41,7.87-30.48v-1.77H271.37z"/>
</g>
<g>
	<polygon class="st0" points="199.17,219.48 214.76,219.48 214.76,204.54 260.54,219.48 289.18,219.48 289.18,207.32 177.8,170.27 
		177.8,192.63 199.17,199.57 	"/>
	<polygon class="st0" points="256.83,228.77 214.76,242.73 214.76,228.77 199.17,228.77 199.17,247.63 177.8,254.73 177.8,276.68 
		289.18,239.06 289.18,228.77 	"/>
</g>
<g>
	<polygon class="st0" points="195.58,326.25 195.58,302.8 271.39,302.8 271.39,326.25 289.18,326.25 289.18,281.66 177.8,281.66 
		177.8,326.25 	"/>
	<path class="st0" d="M271.35,335.53c-0.2,9.06-2.4,14.91-6.65,17.45c-4.46,2.66-14.91,4-31.33,4c-15.88,0-26.15-1.48-30.8-4.45
		c-4.23-2.7-6.51-8.38-6.9-17H177.8v1.53c0,17.57,3.96,28.86,11.87,33.86c7.92,5,25.77,7.51,53.57,7.51
		c17.03,0,28.94-3.11,35.74-9.34c6.8-6.23,10.2-17.12,10.2-32.68v-0.88H271.35z"/>
</g>
<g>
	<rect x="177.8" y="384.58" class="st0" width="111.38" height="6.66"/>
	<rect x="177.8" y="400.52" class="st0" width="111.38" height="5.19"/>
</g>
<g>
	<polygon class="st0" points="343.76,133.6 361.55,133.6 361.55,115.36 401.37,115.36 401.37,133.6 419.16,133.6 419.16,94.23 
		307.77,94.23 307.77,115.36 343.76,115.36 	"/>
	<path class="st0" d="M401.35,142.89c-0.11,8.23-1.22,13.4-3.36,15.44c-2.26,2.15-8.09,3.22-17.5,3.22
		c-8.21,0-13.42-1.29-15.63-3.88c-1.93-2.26-3.01-7.19-3.25-14.79h-17.8l0.04,2.26c0,15.23,2.45,25.35,7.34,30.35
		c4.9,5,14.8,7.51,29.7,7.51c15.01,0,25.15-2.62,30.4-7.87c5.25-5.25,7.87-15.41,7.87-30.48v-1.77H401.35z"/>
</g>
<g>
	<polygon class="st0" points="329.15,219.48 344.74,219.48 344.74,204.54 390.52,219.48 419.16,219.48 419.16,207.32 307.77,170.27 
		307.77,192.63 329.15,199.57 	"/>
	<polygon class="st0" points="386.81,228.77 344.74,242.73 344.74,228.77 329.15,228.77 329.15,247.63 307.77,254.73 307.77,276.68 
		419.16,239.06 419.16,228.77 	"/>
</g>
<g>
	<polygon class="st0" points="325.56,326.25 325.56,302.8 401.37,302.8 401.37,326.25 419.16,326.25 419.16,281.66 307.77,281.66 
		307.77,326.25 	"/>
	<path class="st0" d="M401.33,335.53c-0.2,9.06-2.4,14.91-6.65,17.45c-4.46,2.66-14.91,4-31.33,4c-15.88,0-26.15-1.48-30.8-4.45
		c-4.23-2.7-6.51-8.38-6.9-17h-17.87v1.53c0,17.57,3.96,28.86,11.87,33.86c7.92,5,25.77,7.51,53.57,7.51
		c17.03,0,28.94-3.11,35.74-9.34c6.8-6.23,10.2-17.12,10.2-32.68v-0.88H401.33z"/>
</g>
<g>
	<rect x="307.77" y="384.58" class="st0" width="111.38" height="6.66"/>
	<rect x="307.77" y="400.52" class="st0" width="111.38" height="5.19"/>
</g>
<circle class="st0" cx="433.99" cy="394.72" r="10.44"/>
<path class="st1" d="M439.02,394.33c-2.56,0-4.64-2.08-4.64-4.64c0-1.18,0.45-2.24,1.17-3.05c-0.13-0.01-0.26-0.04-0.4-0.04
	c-3.85,0-6.96,3.12-6.96,6.96s3.12,6.96,6.96,6.96s6.96-3.12,6.96-6.96c0-0.14-0.03-0.26-0.04-0.4
	C441.26,393.88,440.2,394.33,439.02,394.33z"/>
</svg>
