<?xml version="1.0" encoding="utf-8"?>
<!-- Generator: Adobe Illustrator 24.3.0, SVG Export Plug-In . SVG Version: 6.00 Build 0)  -->
<svg version="1.1" id="Layer_1" xmlns="http://www.w3.org/2000/svg" xmlns:xlink="http://www.w3.org/1999/xlink" x="0px" y="0px"
	 viewBox="0 0 500 500" style="enable-background:new 0 0 500 500;" xml:space="preserve">
<style type="text/css">
	.st0{fill:#1A1A1A;}
	.st1{fill:#FFFFFF;}
</style>
<g>
	<polygon class="st0" points="127.99,160.42 141.69,160.42 141.69,146.37 172.35,146.37 172.35,160.42 186.05,160.42 186.05,130.1 
		100.28,130.1 100.28,146.37 127.99,146.37 	"/>
	<path class="st0" d="M172.33,167.56c-0.09,6.34-0.94,10.32-2.59,11.89c-1.74,1.65-6.23,2.48-13.48,2.48c-6.33,0-10.34-1-12.03-2.98
		c-1.48-1.74-2.32-5.53-2.5-11.39h-13.7l0.03,1.74c0,11.73,1.89,19.52,5.66,23.37c3.77,3.85,11.39,5.78,22.87,5.78
		c11.56,0,19.36-2.02,23.41-6.06c4.04-4.04,6.06-11.87,6.06-23.47v-1.36H172.33z"/>
</g>
<g>
	<polygon class="st0" points="116.74,226.54 128.74,226.54 128.74,215.04 164,226.54 186.05,226.54 186.05,217.18 100.28,188.65 
		100.28,205.87 116.74,211.21 	"/>
	<polygon class="st0" points="161.14,233.69 128.74,244.45 128.74,233.69 116.74,233.69 116.74,248.22 100.28,253.68 100.28,270.59 
		186.05,241.62 186.05,233.69 	"/>
</g>
<g>
	<polygon class="st0" points="113.98,308.76 113.98,290.7 172.35,290.7 172.35,308.76 186.05,308.76 186.05,274.43 100.28,274.43 
		100.28,308.76 	"/>
	<path class="st0" d="M172.32,315.91c-0.15,6.98-1.85,11.48-5.12,13.43c-3.43,2.05-11.48,3.08-24.13,3.08
		c-12.23,0-20.14-1.14-23.72-3.42c-3.26-2.08-5.02-6.46-5.31-13.09h-13.76v1.18c0,13.53,3.05,22.22,9.14,26.08
		c6.09,3.85,19.85,5.78,41.25,5.78c13.11,0,22.29-2.4,27.52-7.19c5.24-4.8,7.85-13.19,7.85-25.17v-0.68H172.32z"/>
</g>
<g>
	<rect x="100.28" y="353.67" class="st0" width="85.77" height="5.13"/>
	<rect x="100.28" y="365.95" class="st0" width="85.77" height="4"/>
</g>
<g>
	<polygon class="st0" points="222.11,160.37 235.81,160.37 235.81,146.33 266.47,146.33 266.47,160.37 280.17,160.37 280.17,130.05 
		194.4,130.05 194.4,146.33 222.11,146.33 	"/>
	<path class="st0" d="M266.45,167.52c-0.09,6.34-0.94,10.32-2.59,11.89c-1.74,1.65-6.23,2.48-13.48,2.48c-6.33,0-10.34-1-12.03-2.98
		c-1.48-1.74-2.32-5.53-2.5-11.39h-13.7l0.03,1.74c0,11.73,1.89,19.52,5.66,23.37c3.77,3.85,11.39,5.78,22.87,5.78
		c11.56,0,19.36-2.02,23.41-6.06c4.04-4.04,6.06-11.87,6.06-23.47v-1.36H266.45z"/>
</g>
<g>
	<polygon class="st0" points="210.86,226.5 222.86,226.5 222.86,215 258.12,226.5 280.17,226.5 280.17,217.13 194.4,188.61 
		194.4,205.82 210.86,211.16 	"/>
	<polygon class="st0" points="255.26,233.65 222.86,244.4 222.86,233.65 210.86,233.65 210.86,248.17 194.4,253.64 194.4,270.54 
		280.17,241.58 280.17,233.65 	"/>
</g>
<g>
	<polygon class="st0" points="208.1,308.72 208.1,290.66 266.47,290.66 266.47,308.72 280.17,308.72 280.17,274.38 194.4,274.38 
		194.4,308.72 	"/>
	<path class="st0" d="M266.44,315.86c-0.15,6.98-1.85,11.48-5.12,13.43c-3.43,2.05-11.48,3.08-24.13,3.08
		c-12.23,0-20.14-1.14-23.72-3.42c-3.26-2.08-5.02-6.46-5.31-13.09H194.4v1.18c0,13.53,3.05,22.22,9.14,26.08
		c6.09,3.85,19.85,5.78,41.25,5.78c13.11,0,22.29-2.4,27.52-7.19c5.24-4.8,7.85-13.19,7.85-25.17v-0.68H266.44z"/>
</g>
<g>
	<rect x="194.4" y="353.63" class="st0" width="85.77" height="5.13"/>
	<rect x="194.4" y="365.91" class="st0" width="85.77" height="4"/>
</g>
<g>
	<polygon class="st0" points="322.2,160.37 335.9,160.37 335.9,146.33 366.56,146.33 366.56,160.37 380.26,160.37 380.26,130.05 
		294.49,130.05 294.49,146.33 322.2,146.33 	"/>
	<path class="st0" d="M366.54,167.52c-0.09,6.34-0.94,10.32-2.59,11.89c-1.74,1.65-6.23,2.48-13.48,2.48c-6.33,0-10.34-1-12.03-2.98
		c-1.48-1.74-2.32-5.53-2.5-11.39h-13.7l0.03,1.74c0,11.73,1.89,19.52,5.66,23.37c3.77,3.85,11.39,5.78,22.87,5.78
		c11.56,0,19.36-2.02,23.41-6.06c4.04-4.04,6.06-11.87,6.06-23.47v-1.36H366.54z"/>
</g>
<g>
	<polygon class="st0" points="310.95,226.5 322.95,226.5 322.95,215 358.21,226.5 380.26,226.5 380.26,217.13 294.49,188.61 
		294.49,205.82 310.95,211.16 	"/>
	<polygon class="st0" points="355.35,233.65 322.95,244.4 322.95,233.65 310.95,233.65 310.95,248.17 294.49,253.64 294.49,270.54 
		380.26,241.58 380.26,233.65 	"/>
</g>
<g>
	<polygon class="st0" points="308.19,308.72 308.19,290.66 366.56,290.66 366.56,308.72 380.26,308.72 380.26,274.38 294.49,274.38 
		294.49,308.72 	"/>
	<path class="st0" d="M366.53,315.86c-0.15,6.98-1.85,11.48-5.12,13.43c-3.43,2.05-11.48,3.08-24.13,3.08
		c-12.23,0-20.14-1.14-23.72-3.42c-3.26-2.08-5.02-6.46-5.31-13.09h-13.76v1.18c0,13.53,3.05,22.22,9.14,26.08
		c6.09,3.85,19.85,5.78,41.25,5.78c13.11,0,22.29-2.4,27.52-7.19c5.24-4.8,7.85-13.19,7.85-25.17v-0.68H366.53z"/>
</g>
<g>
	<rect x="294.49" y="353.63" class="st0" width="85.77" height="5.13"/>
	<rect x="294.49" y="365.91" class="st0" width="85.77" height="4"/>
</g>
<circle class="st0" cx="391.68" cy="361.44" r="8.04"/>
<path class="st1" d="M395.55,361.14c-1.97,0-3.57-1.6-3.57-3.57c0-0.91,0.35-1.72,0.9-2.35c-0.1-0.01-0.2-0.03-0.31-0.03
	c-2.96,0-5.36,2.4-5.36,5.36s2.4,5.36,5.36,5.36s5.36-2.4,5.36-5.36c0-0.1-0.02-0.2-0.03-0.31
	C397.27,360.8,396.46,361.14,395.55,361.14z"/>
</svg>
