<?xml version="1.0" encoding="utf-8"?>
<!-- Generator: Adobe Illustrator 24.3.0, SVG Export Plug-In . SVG Version: 6.00 Build 0)  -->
<svg version="1.1" id="Layer_1" xmlns="http://www.w3.org/2000/svg" xmlns:xlink="http://www.w3.org/1999/xlink" x="0px" y="0px"
	 viewBox="0 0 500 500" style="enable-background:new 0 0 500 500;" xml:space="preserve">
<style type="text/css">
	.st0{fill:#333333;}
</style>
<g>
	<g>
		<path class="st0" d="M307.57,224.83c-14.64-8.61-32.01-18.88-37.22-36.23c-1.31-4.36-1.68-9.07-0.12-13.41
			c1.64-4.57,5.92-7.42,9.35-10.55c3.53-3.22,6.93-7.48,6.87-12.51c-0.05-4.42-2.72-8.87-7.26-9.81c-0.83-0.17-1.68-0.24-2.49-0.48
			c-0.42-0.12-0.17,0.03-0.35-0.12c-0.27-0.23-0.03,0-0.03,0.02c0-0.01,0.22-0.58,0.26-0.69c1.01-2.39,2.33-4.65,3.3-7.06
			c1.93-4.77,2.71-9.97,0.57-14.79c-1.77-3.97-5.62-7.3-10.15-7.22c-2.61,0.05-5.03,1.16-7.2,2.53c-2.44,1.54-4.8,3.2-7.19,4.81
			c-4.89,3.28-9.78,6.56-14.67,9.85c-2.02,1.35-3.96,3.13-6.53,2.89c-2.61-0.24-5.22-1.16-7.73-1.88
			c-5.11-1.47-10.21-2.64-15.55-1.92c-4.85,0.65-9.43,2.56-13.62,5.06c-4.35,2.59-8.33,5.78-12.2,9.04
			c-4.08,3.45-8.17,6.92-11.96,10.7c-3.6,3.6-6.63,7.83-11.32,10.1c-4.11,2-8.86,2.46-13.37,2.56c-2.38,0.05-4.76-0.01-7.14-0.09
			c-2.28-0.07-3.15,2.73-1.77,4.27c4.46,4.96,5.96,11.83,9.97,17.11c2.36,3.11,5.3,5.34,8.92,6.79c3.57,1.43,7.51,1.9,11.33,2.02
			c5.16,0.16,10.34-0.37,15.38-1.46c3.14-0.68,1.81-5.5-1.33-4.82c-4.15,0.9-8.35,1.34-12.6,1.31c-3.5-0.02-7-0.33-10.34-1.46
			c-2.96-1-5.51-2.82-7.37-5.34c-1.87-2.52-3.18-5.43-4.54-8.24c-1.63-3.37-3.37-6.65-5.89-9.46c-0.59,1.42-1.18,2.85-1.77,4.27
			c9.69,0.32,20.15,0.19,27.94-6.42c1.94-1.65,3.6-3.6,5.33-5.46c1.85-1.99,3.8-3.88,5.81-5.7c3.91-3.57,7.94-7.05,12.1-10.33
			c7.17-5.67,15.89-10.95,25.41-9.49c5.38,0.83,10.43,3.16,15.84,3.77c2.81,0.32,5.18-0.63,7.48-2.16c2.4-1.6,4.8-3.22,7.2-4.83
			c4.89-3.28,9.78-6.56,14.67-9.85c1.84-1.24,3.85-2.83,6.12-3.15c1.74-0.25,3.32,0.53,4.53,1.78c3.02,3.1,2.91,7.51,1.71,11.39
			c-0.77,2.48-1.93,4.8-3.09,7.12c-1.19,2.38-2.36,5.11-0.49,7.49c1.38,1.75,3.45,1.94,5.48,2.36c1.55,0.32,2.58,1.23,3.16,2.74
			c1.56,4.03-1.43,7.84-4.23,10.52c-3.65,3.51-8.02,6.4-10.36,11.06c-2.24,4.46-2.59,9.46-1.84,14.33
			c1.39,9.03,6.73,17.2,13.03,23.62c6.35,6.48,13.98,11.61,21.69,16.31c1.9,1.16,3.82,2.3,5.73,3.42
			C307.82,230.79,310.34,226.47,307.57,224.83L307.57,224.83z"/>
	</g>
</g>
<g>
	<g>
		<path class="st0" d="M167.88,193.81c1.46,3.94-0.52,7.74-2.71,10.99c-2.66,3.93-5.87,7.52-8.85,11.21c-3.07,3.8-6,7.77-9.27,11.4
			c-1.19,1.32-2.55,2.66-4.3,3.2c-1.77,0.55-3.58,0.32-5.31-0.27c-4.36-1.48-7.29-5.66-9.87-9.22c-1.14,1.14-2.28,2.28-3.42,3.42
			c5.2,3.98,7.86,10.56,13.97,13.5c7.27,3.49,15.71,1.11,21.85-3.56c3.56-2.71,6.53-6,9.38-9.42c0.86-1.04,1.02-2.52,0-3.54
			c-0.91-0.91-2.64-1.02-3.54,0c-7.23,8.25-9.21,19.2-9.24,29.87c-0.02,5.56,0.47,11.1,0.95,16.64c0.59,6.79,1.21,13.58,1.86,20.36
			c0.74,7.69,1.51,15.38,2.32,23.07c0.34,3.2,4.67,3.22,5,0c1.44-14.24,2.88-28.48,4.32-42.73c-1.64,0.22-3.27,0.44-4.91,0.66
			c1.48,6.08,3.62,12.06,6.77,17.48c3.09,5.3,7.22,9.88,11.92,13.8c4.69,3.91,9.82,7.25,14.98,10.49
			c5.38,3.38,10.77,6.77,16.34,9.84c6.42,3.54,13.13,6.62,20.18,8.68c-0.61-0.8-1.22-1.61-1.84-2.41c-0.21,4.8-0.51,11.06-5.33,13.6
			c-2.17,1.14-4.82,1.02-7.15,0.56c-3.02-0.6-5.93-1.7-8.79-2.82c-5.37-2.1-10.69-3.71-16.43-4.43c-5.6-0.69-11.24-0.52-16.82,0.33
			c-11.11,1.68-21.74,6.45-30.31,13.72c-9.03,7.65-15.22,18.08-19.33,29.07c-4.78,12.8-6.79,26.46-8.22,39.98
			c-0.3,2.82,4.27,3.37,4.91,0.66c2.39-10.05,5.68-20.03,10.22-29.33c1.79-3.66,4.09-7.51,8.09-9.03c4.24-1.62,8.95-0.53,13.09,0.85
			c4.73,1.58,9.22,3.79,13.85,5.61c4.9,1.93,9.88,3.64,14.94,5.08c10.15,2.9,20.64,4.76,31.19,5.28
			c19.57,0.96,39.58-3.01,56.71-12.72c8.77-4.97,16.39-11.54,23.28-18.86c6.94-7.37,13.49-15.21,19.25-23.54
			c11.52-16.67,19.77-36.6,18.57-57.2c-0.15-2.62-0.47-5.22-0.92-7.8c-0.23-1.33-1.87-2.08-3.08-1.75
			c-1.41,0.39-1.97,1.74-1.75,3.08c3.43,20.03-3.66,40.19-14.34,56.92c-5.33,8.35-11.58,16.06-18.2,23.41
			c-6.7,7.44-13.9,14.41-22.44,19.7c-16.31,10.11-35.69,14.41-54.77,13.84c-10.36-0.31-20.62-2.01-30.61-4.76
			c-5.08-1.39-10.08-3.05-14.99-4.93c-4.69-1.8-9.23-3.99-13.95-5.71c-4.51-1.64-9.34-2.79-14.15-2.08
			c-4.71,0.69-8.48,3.42-11.24,7.2c-2.83,3.88-4.62,8.58-6.41,12.99c-1.96,4.82-3.68,9.74-5.13,14.73
			c-0.74,2.53-1.41,5.09-2.02,7.66c1.64,0.22,3.27,0.44,4.91,0.66c2.41-22.74,6.93-48.17,24.7-64.31
			c8.07-7.33,18.4-11.9,29.13-13.59c5.23-0.82,10.67-0.88,15.92-0.2c5.66,0.74,10.86,2.65,16.16,4.68
			c6.01,2.3,13.53,4.69,19.45,0.85c5.88-3.81,6.74-11.04,7.02-17.46c0.05-1.1-0.81-2.11-1.84-2.41
			c-11.97-3.49-22.65-10.08-33.14-16.64c-9.52-5.96-19.61-12.09-25.93-21.67c-3.71-5.63-6.04-11.96-7.63-18.49
			c-0.29-1.2-1.56-1.97-2.74-1.79c-1.31,0.2-2.04,1.18-2.17,2.46c-1.44,14.24-2.88,28.48-4.32,42.73c1.67,0,3.33,0,5,0
			c-1.39-13.22-2.68-26.46-3.85-39.71c-0.94-10.58-2.38-21.62-0.24-32.15c1.08-5.32,3.13-10.43,6.74-14.55
			c-1.18-1.18-2.36-2.36-3.54-3.54c-4.31,5.17-9.15,10.72-15.88,12.59c-3.07,0.85-6.54,0.95-9.47-0.48
			c-2.64-1.29-4.61-3.52-6.46-5.74c-2.29-2.75-4.47-5.48-7.33-7.66c-1.97-1.5-4.85,1.45-3.42,3.42c2.88,3.96,5.93,8.18,10.4,10.47
			c4.53,2.32,9.93,2.56,14.13-0.59c1.91-1.44,3.41-3.25,4.91-5.1c1.87-2.31,3.74-4.63,5.6-6.94c3.5-4.33,7.18-8.57,10.44-13.08
			c3.27-4.52,6.04-10.31,3.97-15.91c-0.47-1.27-1.69-2.13-3.08-1.75C168.41,191.07,167.41,192.54,167.88,193.81L167.88,193.81z"/>
	</g>
</g>
<g>
	<g>
		<path class="st0" d="M272.91,115.41c-0.71-0.36-1.44-0.59-2.25-0.57c-0.81,0.02-1.52,0.23-2.25,0.58
			c-1.14,0.55-2.04,1.6-2.53,2.76c-0.58,1.37-0.52,2.82,0.05,4.18c0.54,1.27,1.46,2.26,2.6,3.03c2.39,1.61,6.03,1.66,7.9-0.76
			c0.96-1.24,1.2-2.84,0.87-4.36c-0.32-1.44-1.35-2.63-2.56-3.42c-0.59-0.38-1.29-0.67-1.98-0.83c-0.86-0.2-1.85-0.31-2.71-0.03
			c-1.34,0.44-2.33,1.6-2.32,3.05c0,0.69,0.24,1.33,0.65,1.87c0.23,0.3,0.48,0.55,0.82,0.75c0.45,0.26,0.91,0.32,1.42,0.39
			c0.59,0.08,1.37-0.33,1.77-0.73c0.43-0.43,0.76-1.15,0.73-1.77c-0.03-0.65-0.24-1.32-0.73-1.77c-0.17-0.13-0.34-0.26-0.51-0.39
			c-0.39-0.23-0.81-0.34-1.26-0.34c-0.02,0-0.04-0.01-0.07-0.01c0.22,0.03,0.44,0.06,0.66,0.09c-0.02-0.01-0.04-0.01-0.06-0.02
			c0.2,0.08,0.4,0.17,0.6,0.25c-0.02-0.01-0.04-0.02-0.06-0.03c0.17,0.13,0.34,0.26,0.51,0.39c-0.04-0.02-0.07-0.05-0.09-0.09
			c0.13,0.17,0.26,0.34,0.39,0.51c-0.03-0.03-0.05-0.07-0.07-0.11c0.08,0.2,0.17,0.4,0.25,0.6c-0.02-0.04-0.03-0.09-0.04-0.13
			c0.03,0.22,0.06,0.44,0.09,0.66c-0.01-0.07-0.01-0.14-0.01-0.21c-0.03,0.22-0.06,0.44-0.09,0.66c0.01-0.05,0.02-0.09,0.03-0.14
			c-0.08,0.2-0.17,0.4-0.25,0.6c0.02-0.04,0.04-0.09,0.06-0.12c-0.13,0.17-0.26,0.34-0.39,0.51c0.03-0.04,0.07-0.08,0.11-0.12
			c-0.17,0.13-0.34,0.26-0.51,0.39c0.08-0.06,0.14-0.1,0.23-0.14c-0.2,0.08-0.4,0.17-0.6,0.25c0.09-0.03,0.17-0.05,0.26-0.07
			c-0.22,0.03-0.44,0.06-0.66,0.09c0.26-0.03,0.51-0.02,0.76,0.02c-0.22-0.03-0.44-0.06-0.66-0.09c0.4,0.06,0.79,0.17,1.16,0.32
			c-0.2-0.08-0.4-0.17-0.6-0.25c0.31,0.14,0.59,0.3,0.86,0.5c-0.17-0.13-0.34-0.26-0.51-0.39c0.24,0.18,0.45,0.39,0.63,0.62
			c-0.13-0.17-0.26-0.34-0.39-0.51c0.15,0.2,0.28,0.42,0.38,0.65c-0.08-0.2-0.17-0.4-0.25-0.6c0.09,0.23,0.15,0.46,0.19,0.7
			c-0.03-0.22-0.06-0.44-0.09-0.66c0.03,0.27,0.03,0.54,0,0.81c0.03-0.22,0.06-0.44,0.09-0.66c-0.04,0.24-0.1,0.46-0.19,0.69
			c0.08-0.2,0.17-0.4,0.25-0.6c-0.07,0.16-0.16,0.31-0.27,0.46c0.13-0.17,0.26-0.34,0.39-0.51c-0.11,0.14-0.23,0.27-0.37,0.38
			c0.17-0.13,0.34-0.26,0.51-0.39c-0.16,0.12-0.33,0.22-0.52,0.31c0.2-0.08,0.4-0.17,0.6-0.25c-0.25,0.1-0.51,0.17-0.78,0.21
			c0.22-0.03,0.44-0.06,0.66-0.09c-0.35,0.04-0.69,0.03-1.03-0.02c0.22,0.03,0.44,0.06,0.66,0.09c-0.39-0.06-0.77-0.17-1.14-0.32
			c0.2,0.08,0.4,0.17,0.6,0.25c-0.38-0.17-0.74-0.37-1.08-0.62c0.17,0.13,0.34,0.26,0.51,0.39c-0.33-0.25-0.62-0.54-0.87-0.87
			c0.13,0.17,0.26,0.34,0.39,0.51c-0.19-0.25-0.34-0.51-0.47-0.8c0.08,0.2,0.17,0.4,0.25,0.6c-0.12-0.29-0.2-0.58-0.24-0.89
			c0.03,0.22,0.06,0.44,0.09,0.66c-0.03-0.24-0.03-0.47,0-0.71c-0.03,0.22-0.06,0.44-0.09,0.66c0.04-0.23,0.1-0.44,0.19-0.65
			c-0.08,0.2-0.17,0.4-0.25,0.6c0.11-0.24,0.24-0.45,0.39-0.66c-0.13,0.17-0.26,0.34-0.39,0.51c0.16-0.2,0.34-0.38,0.54-0.54
			c-0.17,0.13-0.34,0.26-0.51,0.39c0.2-0.15,0.42-0.28,0.65-0.39c-0.2,0.08-0.4,0.17-0.6,0.25c0.2-0.08,0.41-0.15,0.63-0.18
			c-0.22,0.03-0.44,0.06-0.66,0.09c0.22-0.03,0.43-0.03,0.64,0c-0.22-0.03-0.44-0.06-0.66-0.09c0.16,0.03,0.32,0.07,0.47,0.14
			c-0.2-0.08-0.4-0.17-0.6-0.25c0.05,0.02,0.1,0.05,0.15,0.07c0.6,0.3,1.26,0.43,1.93,0.25c0.58-0.16,1.21-0.61,1.49-1.15
			C274.41,117.69,274.16,116.04,272.91,115.41L272.91,115.41z"/>
	</g>
</g>
<g>
	<g>
		<path class="st0" d="M238.03,146.57c-0.26-4.2-4.36-6.04-8.01-6.62c-1.9-0.31-3.86-0.33-5.64,0.52c-1.67,0.81-2.8,2.35-3.42,4.06
			c-1.25,3.42-0.13,7.56,2.44,10.08c2.84,2.78,6.8,3.32,10.54,2.37c2.24-0.57,3.04-2.88,3.55-4.9c0.57-2.24,0.6-4.53,0.19-6.8
			c-0.14-0.8-1.12-1.25-1.85-1.05c-0.84,0.23-1.19,1.04-1.05,1.85c0.24,1.37,0.26,2.82,0.02,4.2c-0.13,0.72-0.31,1.43-0.54,2.12
			c-0.15,0.44-0.36,1.32-0.77,1.59c-0.41,0.28-1.3,0.29-1.77,0.36c-0.7,0.11-1.42,0.15-2.13,0.07c-1.2-0.13-2.36-0.61-3.34-1.3
			c-1.99-1.41-3.06-4-2.77-6.4c0.14-1.1,0.6-2.24,1.42-3.01c0.92-0.86,2.16-1.02,3.37-0.96c2.23,0.11,6.57,0.94,6.75,3.82
			c0.05,0.81,0.65,1.5,1.5,1.5C237.3,148.07,238.08,147.38,238.03,146.57L238.03,146.57z"/>
	</g>
</g>
<g>
	<g>
		<path class="st0" d="M231.66,149.14c1.93,0,1.93-3,0-3C229.73,146.14,229.72,149.14,231.66,149.14L231.66,149.14z"/>
	</g>
</g>
<g>
	<g>
		<path class="st0" d="M172.07,229.87c-4.45,1.9-5.08,7.76-5.88,11.9c-1.16,5.97-1.94,11.98-1.03,18.03c0.28,1.9,3.18,1.09,2.89-0.8
			c-0.8-5.32-0.06-10.72,0.94-15.96c0.41-2.15,0.76-4.36,1.42-6.46c0.56-1.77,1.4-3.37,3.17-4.13
			C175.35,231.7,173.83,229.12,172.07,229.87L172.07,229.87z"/>
	</g>
</g>
<g>
	<g>
		<path class="st0" d="M183.1,282.09c2.38,7.22,8.88,11.67,14.9,15.72c7.24,4.87,14.75,9.34,22.48,13.39
			c1.71,0.9,3.23-1.69,1.51-2.59c-7.31-3.83-14.43-8.03-21.3-12.6c-5.65-3.76-12.45-7.9-14.69-14.71
			C185.39,279.47,182.5,280.25,183.1,282.09L183.1,282.09z"/>
	</g>
</g>
<g>
	<g>
		<path class="st0" d="M209.75,347.22c-12.61-7.48-28.74-7.19-40.96,0.97c-3.3,2.2-6.25,4.89-8.73,7.99
			c-1.19,1.49,0.92,3.63,2.12,2.12c5.2-6.5,12.5-11.1,20.65-12.82c8.64-1.83,17.83-0.16,25.4,4.33
			C209.9,350.79,211.42,348.2,209.75,347.22L209.75,347.22z"/>
	</g>
</g>
<g>
	<g>
		<path class="st0" d="M181.72,376.86c3.27,3.36,7.92,4.51,12.31,5.65c5.36,1.39,10.76,2.63,16.24,3.45
			c9.93,1.48,20.18,1.57,29.88-1.29c5.18-1.53,10.12-3.88,14.44-7.13c1.52-1.15,0.03-3.75-1.51-2.59
			c-16.01,12.07-37.15,9.91-55.44,5.38c-4.65-1.15-10.29-2.01-13.78-5.59C182.49,373.35,180.37,375.48,181.72,376.86L181.72,376.86z
			"/>
	</g>
</g>
<g>
	<g>
		<path class="st0" d="M171.47,166.97c-4.63,3.83-10.63,5.63-16.61,5.17c-1.34-0.1-1.92,1.68-1.06,2.56
			c2.19,2.24,3.8,4.98,6.15,7.08c1.98,1.78,4.25,3.16,6.71,4.17c4.97,2.05,10.61,2.36,15.74,0.75c1.84-0.57,1.05-3.47-0.8-2.89
			c-4.63,1.45-9.67,1.16-14.14-0.75c-2.19-0.94-4.22-2.25-5.94-3.9c-2.09-2.01-3.59-4.51-5.61-6.58c-0.35,0.85-0.71,1.71-1.06,2.56
			c6.79,0.52,13.5-1.72,18.73-6.04C175.08,167.86,172.95,165.75,171.47,166.97L171.47,166.97z"/>
	</g>
</g>
<g>
	<g>
		<path class="st0" d="M154.11,388.19c0.24-2.1-1.24-4.03-3.17-4.72c-1.95-0.71-4.1-0.03-5.68,1.2c-1.86,1.45-2.87,3.6-3.82,5.69
			c-1.04,2.29-2.06,4.58-3.05,6.89c-4.1,9.57-7.74,19.34-10.77,29.31c-1.71,5.63-3.22,11.32-4.52,17.06
			c-0.43,1.88,2.47,2.68,2.89,0.8c4-17.64,10.02-34.78,17.45-51.26c0.92-2.03,1.74-4.53,3.49-6.01c1.32-1.12,4.47-1.53,4.18,1.04
			C150.89,390.1,153.89,390.09,154.11,388.19L154.11,388.19z"/>
	</g>
</g>
<path class="st0" d="M330.04,246.95c0.72,3.16,0.39,5.99-0.99,8.5c-1.42,2.6-3.69,4.25-6.81,4.96c-1.14,0.26-2.42,0.26-3.85-0.01
	c-1.43-0.26-2.08-0.41-1.96-0.43c-0.19,0.04-0.24,0.29-0.13,0.73c0.17,0.75,0.47,1.88,0.89,3.37c0.42,1.5,0.72,2.62,0.89,3.37
	c0.11,0.47-0.08,0.76-0.57,0.88l-4.51,1.06c-1.02,0.23-1.68,0.35-1.99,0.34c-0.47,0-0.75-0.22-0.85-0.67L306.29,252
	c-0.79-3.44-1.71-6.28-2.77-8.52c-0.06-0.14-0.11-0.26-0.13-0.37c-0.05-0.22,0.01-0.39,0.17-0.5c0.52-0.35,1.57-0.84,3.14-1.46
	c1.52-0.61,2.64-1,3.34-1.16c0.58-0.13,0.99,0.17,1.25,0.91s0.44,1.1,0.56,1.07c-0.15,0.03,0.39-0.51,1.62-1.64
	c1.23-1.13,2.41-1.82,3.56-2.09c3.2-0.73,6.01-0.26,8.41,1.4C327.75,241.25,329.29,243.69,330.04,246.95z M321.81,248.79
	c-0.27-1.18-0.87-2.13-1.8-2.85c-1-0.75-2.07-1-3.22-0.73c-1.18,0.27-2.02,0.95-2.51,2.05c-0.43,0.98-0.5,2.09-0.22,3.31
	c0.29,1.25,0.85,2.22,1.69,2.9c0.9,0.74,1.96,0.97,3.19,0.69C321.54,253.56,322.5,251.77,321.81,248.79z"/>
<path class="st0" d="M351.19,240.77c0.26,1.14,0.71,2.81,1.36,5.02c0.65,2.21,1.1,3.88,1.36,5c0.14,0.59-0.05,0.97-0.56,1.13
	c-1.8,0.55-3.88,1.1-6.24,1.64c-0.28,0.06-0.57-0.32-0.86-1.14c-0.29-0.83-0.5-1.23-0.64-1.22c-0.1,0.09-0.23,0.25-0.38,0.48
	c-1.27,2.05-2.85,3.29-4.74,3.72c-2.88,0.66-5.52,0.07-7.93-1.77c-2.27-1.72-3.75-4.05-4.42-7c-0.78-3.41-0.49-6.37,0.88-8.87
	c1.43-2.6,3.81-4.27,7.14-5.04c2.32-0.53,4.33-0.14,6.05,1.18c0.08,0.06,0.14,0.09,0.18,0.08c0.13-0.03,0.2-0.42,0.21-1.18
	c0.01-0.76,0.13-1.16,0.36-1.21c0.55-0.13,1.62-0.21,3.23-0.25c1.53-0.04,2.63-0.03,3.32,0.03c0.24,0.04,0.38,0.13,0.41,0.28
	c0.01,0.06,0.03,0.22,0.04,0.48C350.1,234.91,350.51,237.79,351.19,240.77z M344.09,242.54c-0.29-1.25-0.92-2.2-1.9-2.84
	c-0.98-0.64-2.1-0.81-3.37-0.52c-1.27,0.29-2.2,0.93-2.8,1.92c-0.6,0.99-0.75,2.12-0.46,3.39c0.27,1.19,0.92,2.13,1.95,2.79
	c1.02,0.67,2.12,0.86,3.3,0.59c1.25-0.29,2.19-0.93,2.8-1.93C344.22,244.94,344.38,243.81,344.09,242.54z"/>
<path class="st0" d="M369.23,215.33c-0.07-0.32-0.02,0.17,0.16,1.5c0.21,1.67,0.57,3.8,1.06,6.37c0.55,2.92,1.24,6.22,2.09,9.91
	c1.4,6.09,2.56,10.4,3.49,12.9c0.09,0.27,0.15,0.45,0.17,0.52c0.04,0.16-0.05,0.28-0.26,0.36c-0.51,0.2-2.46,0.68-5.84,1.46
	c-0.8,0.18-1.29,0.13-1.48-0.15c-0.16-0.55-0.32-1.11-0.47-1.66c-0.04-0.11-0.13-0.22-0.26-0.31c-0.08,0.06-0.17,0.18-0.27,0.34
	c-1.24,1.93-3.05,3.17-5.44,3.72c-3.11,0.71-5.86,0.19-8.23-1.56c-2.26-1.67-3.76-4.09-4.49-7.27c-0.74-3.22-0.47-6.07,0.81-8.55
	c1.35-2.64,3.61-4.32,6.77-5.04c2.23-0.51,4.13-0.2,5.69,0.93c0.26,0.19,0.44,0.27,0.52,0.25c0.13-0.03,0.16-0.24,0.07-0.62
	c-0.26-1.14-0.68-2.83-1.26-5.07c-0.58-2.24-0.99-3.93-1.25-5.05c-0.1-0.43-0.04-0.7,0.19-0.81c0.93-0.26,2.21-0.65,3.84-1.16
	c2.87-1.05,4.13-1.53,3.79-1.45C368.94,214.81,369.15,214.96,369.23,215.33z M365.55,237.59c-0.27-1.17-0.91-2.09-1.92-2.79
	c-1.01-0.69-2.1-0.91-3.25-0.64c-1.21,0.28-2.07,0.94-2.59,1.98c-0.51,1.04-0.63,2.18-0.35,3.4c0.27,1.19,0.87,2.12,1.78,2.78
	c0.94,0.72,2,0.94,3.18,0.67c1.18-0.27,2.07-0.94,2.66-2.01C365.66,239.91,365.82,238.78,365.55,237.59z"/>
<g>
	<g>
		<path class="st0" d="M157.36,134.5c1.78,0.32,3.59,0.51,5.41,0.52c1.69,0.01,4.03,0.08,4.68-1.9c0.29-0.89,0.05-1.86-0.17-2.74
			c-0.18-0.7-0.41-1.38-0.68-2.05c-0.65-1.6-1.49-3.03-2.55-4.39c-0.48-0.62-1.62-0.55-2.12,0c-0.61,0.66-0.52,1.46,0,2.12
			c-0.16-0.21,0.17,0.23,0.2,0.27c0.08,0.12,0.17,0.24,0.25,0.36c0.17,0.26,0.34,0.52,0.5,0.79c0.33,0.56,0.62,1.14,0.88,1.74
			c-0.1-0.24,0.05,0.13,0.07,0.18c0.05,0.13,0.1,0.27,0.15,0.41c0.11,0.32,0.22,0.64,0.31,0.96c0.08,0.28,0.15,0.56,0.21,0.84
			c0.04,0.19,0.09,0.37,0.11,0.56c-0.04-0.29,0.03,0.13-0.01,0.16c0,0,0.14-0.34,0.16-0.36c0.17-0.11,0.18-0.12,0.04-0.03
			c0.17-0.06,0.2-0.08,0.09-0.04c-0.14,0.03-0.27,0.07-0.4,0.09c0.37-0.07,0-0.01-0.08-0.01c-0.7,0.04-1.41,0.05-2.11,0.03
			c-1.5-0.03-2.81-0.17-4.12-0.4c-0.77-0.14-1.65,0.21-1.85,1.05C156.14,133.39,156.53,134.35,157.36,134.5L157.36,134.5z"/>
	</g>
</g>
<g>
	<g>
		<path class="st0" d="M164.98,134.19c1.32,1.03,2.54,2.18,3.63,3.45c0.27,0.31,0.52,0.63,0.78,0.94c0.15,0.19-0.21-0.28,0.04,0.05
			c0.06,0.09,0.13,0.17,0.19,0.26c0.11,0.16,0.23,0.31,0.34,0.47c0.49,0.7,0.95,1.43,1.37,2.18c0.39,0.68,1.38,0.97,2.05,0.54
			c0.69-0.45,0.95-1.32,0.54-2.05c-1.72-3.06-4.05-5.8-6.82-7.96c-0.33-0.26-0.63-0.44-1.06-0.44c-0.37,0-0.81,0.16-1.06,0.44
			C164.48,132.61,164.32,133.68,164.98,134.19L164.98,134.19z"/>
	</g>
</g>
<g>
	<g>
		<path class="st0" d="M175.13,140.61c0.72-3.78,0.87-7.63,0.38-11.45c-0.1-0.8-0.62-1.5-1.5-1.5c-0.73,0-1.6,0.69-1.5,1.5
			c0.46,3.54,0.39,7.14-0.27,10.65c-0.15,0.8,0.22,1.62,1.05,1.85C174.02,141.86,174.98,141.41,175.13,140.61L175.13,140.61z"/>
	</g>
</g>
<g>
	<g>
		<path class="st0" d="M173.47,139.47c-0.81,0.09-1.63,0.13-2.45,0.11c-0.8-0.02-1.54-0.09-2.22-0.2c-0.81-0.14-1.6-0.33-2.39-0.58
			c-0.78-0.24-1.42-0.5-2.08-0.82c-0.73-0.35-1.62-0.2-2.05,0.54c-0.38,0.66-0.2,1.7,0.54,2.05c3.31,1.59,7,2.3,10.65,1.9
			c0.78-0.08,1.54-0.63,1.5-1.5C174.94,140.23,174.31,139.38,173.47,139.47L173.47,139.47z"/>
	</g>
</g>
<g>
	<g>
		<path class="st0" d="M172.47,142.24c1.94,2.34,3.89,4.68,5.83,7.02c0.5,0.61,1.61,0.56,2.12,0c0.59-0.64,0.54-1.47,0-2.12
			c-1.94-2.34-3.89-4.68-5.83-7.02c-0.5-0.61-1.61-0.56-2.12,0C171.88,140.77,171.94,141.6,172.47,142.24L172.47,142.24z"/>
	</g>
</g>
<g>
	<g>
		<path class="st0" d="M179.59,148.8c-4.33-0.03-8.65,0.14-12.96,0.5c-0.81,0.07-1.5,0.64-1.5,1.5c0,0.76,0.69,1.57,1.5,1.5
			c4.31-0.37,8.64-0.54,12.96-0.5C181.52,151.81,181.52,148.81,179.59,148.8L179.59,148.8z"/>
	</g>
</g>
<g>
	<g>
		<path class="st0" d="M180.71,149.81c3.69-5.76,5.04-12.71,3.94-19.44c-0.13-0.8-1.12-1.25-1.85-1.05
			c-0.85,0.23-1.18,1.04-1.05,1.85c0.97,5.93-0.4,12.08-3.63,17.13C177.08,149.93,179.67,151.43,180.71,149.81L180.71,149.81z"/>
	</g>
</g>
<g>
	<g>
		<path class="st0" d="M135.04,272.28c2.5,1.51,5,3.01,7.51,4.52c0-0.86,0-1.73,0-2.59c-3.51,1.83-7.01,3.66-10.52,5.49
			c-0.72,0.37-0.93,1.38-0.54,2.05c0.43,0.73,1.33,0.91,2.05,0.54c3.51-1.83,7.01-3.66,10.52-5.49c1.02-0.53,0.93-2.03,0-2.59
			c-2.5-1.51-5-3.01-7.51-4.52c-0.69-0.42-1.65-0.15-2.05,0.54C134.08,270.94,134.34,271.87,135.04,272.28L135.04,272.28z"/>
	</g>
</g>
<g>
	<g>
		<path class="st0" d="M143.26,277.69c2.99,0.12,5.98,0.24,8.97,0.35c0.92,0.04,1.77-1,1.45-1.9c-1.04-2.86-2.35-5.61-3.95-8.2
			c-1.03-1.66-3.4-0.21-2.59,1.51c1.16,2.48,2.1,5.06,2.81,7.7c0.02,0.08,0.21,0.88,0.23,0.88c0.23-0.47,0.23-0.57-0.02-0.3
			c-0.11,0.09-0.22,0.17-0.33,0.26c-0.58,0.45-1.16,0.89-1.74,1.34c-1.2,0.92-2.4,1.85-3.6,2.77c-0.64,0.49-0.98,1.29-0.54,2.05
			c0.37,0.63,1.41,1.03,2.05,0.54c1.4-1.07,2.79-2.14,4.19-3.21c1.42-1.09,3.28-2.04,2.9-4.12c-0.28-1.57-0.85-3.14-1.38-4.64
			c-0.58-1.62-1.24-3.21-1.97-4.77c-0.86,0.5-1.73,1.01-2.59,1.51c1.47,2.37,2.7,4.86,3.65,7.48c0.48-0.63,0.96-1.27,1.45-1.9
			c-2.99-0.12-5.98-0.24-8.97-0.35C141.33,274.61,141.33,277.61,143.26,277.69L143.26,277.69z"/>
	</g>
</g>
<g>
	<g>
		<path class="st0" d="M152.12,278.45c2.2,0.13,4.41,0.25,6.61,0.38c0.78,0.05,1.53-0.72,1.5-1.5c-0.04-0.85-0.66-1.45-1.5-1.5
			c-2.2-0.13-4.41-0.25-6.61-0.38c-0.78-0.05-1.53,0.72-1.5,1.5C150.66,277.8,151.28,278.4,152.12,278.45L152.12,278.45z"/>
	</g>
</g>
<g>
	<g>
		<path class="st0" d="M136.92,367.74c-1.2-2.23-2.57-4.35-4.11-6.36c-0.74-0.96-1.5-1.9-2.31-2.8c-0.79-0.89-1.94-1.72-2.6-2.71
			c-0.59-0.89,0.49-2.21,0.86-3.05c0.48-1.09,0.87-2.22,1.13-3.39c0.56-2.5,0.58-5.03,0.16-7.55c-0.24-1.49-2.56-1.37-2.89,0
			c-0.51,2.07-1.01,4.14-1.52,6.21c-0.47,1.9-0.74,4.04-1.49,5.85c-0.31,0.76-0.53,1.12-1.36,0.87c-0.97-0.29-1.92-0.88-2.83-1.31
			c-1.95-0.92-3.9-1.83-5.84-2.75c-1.74-0.82-3.26,1.77-1.51,2.59c2.38,1.12,4.76,2.24,7.14,3.36c2.01,0.94,4.3,2.04,6.11,0.11
			c1.46-1.55,1.72-4.04,2.21-6.02c0.66-2.71,1.33-5.41,1.99-8.12c-0.96,0-1.93,0-2.89,0c0.42,2.54,0.19,5.16-0.62,7.6
			c-0.72,2.17-2.71,4.5-1.41,6.84c0.53,0.96,1.47,1.69,2.22,2.47c0.9,0.94,1.75,1.92,2.57,2.93c1.68,2.1,3.13,4.37,4.41,6.74
			C135.25,370.95,137.84,369.44,136.92,367.74L136.92,367.74z"/>
	</g>
</g>
<g>
	<g>
		<path class="st0" d="M134.74,362.97c0.56-3.7,1.35-7.36,2.37-10.96c0.22-0.78-0.27-1.63-1.05-1.85c-0.79-0.22-1.62,0.26-1.85,1.05
			c-1.01,3.6-1.8,7.26-2.37,10.96c-0.12,0.8,0.2,1.61,1.05,1.85C133.61,364.22,134.62,363.78,134.74,362.97L134.74,362.97z"/>
	</g>
</g>
<g>
	<g>
		<path class="st0" d="M133.18,361.95c-3.74-0.36-7.47-0.71-11.21-1.07c-0.81-0.08-1.5,0.74-1.5,1.5c0,0.88,0.69,1.42,1.5,1.5
			c3.74,0.36,7.47,0.71,11.21,1.07c0.81,0.08,1.5-0.74,1.5-1.5C134.68,362.57,133.99,362.02,133.18,361.95L133.18,361.95z"/>
	</g>
</g>
<g>
	<g>
		<path class="st0" d="M185.03,390.81c-2.43,5.03-4.19,10.36-5.1,15.88c-0.22,1.33-0.38,2.66-0.53,4c-0.08,0.77-0.17,0.84-0.9,1.14
			c-0.69,0.28-1.37,0.56-2.06,0.84c-2.89,1.19-5.79,2.37-8.68,3.56c-1.76,0.72-0.99,3.63,0.8,2.89c3.05-1.25,6.09-2.5,9.14-3.75
			c1.22-0.5,2.89-0.87,3.82-1.85c0.93-0.97,0.83-2.49,0.98-3.74c0.7-6.05,2.48-11.98,5.13-17.46
			C188.46,390.59,185.87,389.07,185.03,390.81L185.03,390.81z"/>
	</g>
</g>
<g>
	<g>
		<path class="st0" d="M179.07,412.36c-0.3,3.62,0.2,7.32,1.46,10.73c0.28,0.76,1.02,1.28,1.85,1.05c0.73-0.2,1.33-1.08,1.05-1.85
			c-1.19-3.22-1.64-6.51-1.36-9.94c0.07-0.81-0.74-1.5-1.5-1.5C179.7,410.86,179.14,411.55,179.07,412.36L179.07,412.36z"/>
	</g>
</g>
<g>
	<g>
		<path class="st0" d="M183.19,401.5c1.64,2.63,3.29,5.27,4.93,7.9c0.42,0.67,1.36,0.99,2.05,0.54c0.67-0.43,0.98-1.34,0.54-2.05
			c-1.64-2.63-3.29-5.27-4.93-7.9c-0.42-0.67-1.36-0.99-2.05-0.54C183.06,399.88,182.75,400.79,183.19,401.5L183.19,401.5z"/>
	</g>
</g>
<g>
	<g>
		<path class="st0" d="M183.17,398.01c-3.54,1.75-6.97,3.71-10.26,5.89c-0.68,0.45-0.96,1.33-0.54,2.05
			c0.39,0.67,1.37,0.99,2.05,0.54c3.3-2.17,6.72-4.14,10.26-5.89c0.73-0.36,0.93-1.39,0.54-2.05
			C184.79,397.81,183.9,397.65,183.17,398.01L183.17,398.01z"/>
	</g>
</g>
<g>
	<g>
		<path class="st0" d="M313.45,268.22c0.08,3.94-1.62,7.61-4.33,10.42c-2.91,3.01-7.3,5.45-11.61,4.87
			c-4.03-0.54-7.88-3.38-10.79-6.07c-2.91-2.7-5.3-5.9-7.09-9.44c-2.04-4.03-3.22-8.47-3.42-12.98c-0.09-1.92-3.09-1.93-3,0
			c0.41,9.15,4.47,17.98,11.12,24.29c3.36,3.18,7.71,6.34,12.37,7.1c4.96,0.81,9.97-1.45,13.61-4.73c3.79-3.41,6.27-8.3,6.16-13.45
			C316.41,266.29,313.41,266.29,313.45,268.22L313.45,268.22z"/>
	</g>
</g>
<g>
	<g>
		<path class="st0" d="M314.72,269.67c2.55,4.08,3.28,8.83,3.44,13.56c0.08,2.42,0.05,4.84-0.01,7.25
			c-0.06,2.55-0.19,5.13-0.94,7.59c-1.41,4.66-5.33,8.12-8.78,11.35c-3.51,3.29-7.45,6.49-12.13,7.91
			c-4.47,1.35-9.76,1.04-13.36-2.21c-1.43-1.29-3.56,0.82-2.12,2.12c3.64,3.29,8.57,4.3,13.34,3.62c5.26-0.75,9.84-3.66,13.82-7.02
			c2.07-1.75,4.02-3.63,5.92-5.56c1.85-1.87,3.64-3.9,4.89-6.24c2.66-4.99,2.43-10.99,2.4-16.48c-0.03-6-0.64-12.2-3.89-17.4
			C316.29,266.52,313.69,268.03,314.72,269.67L314.72,269.67z"/>
	</g>
</g>
<g>
	<g>
		<path class="st0" d="M314.7,269.19c-1.28,4.63-2.57,9.26-3.85,13.89c-1.02,3.66-2.06,7.69-4.96,10.35
			c-2.93,2.69-7.23,3.11-11.03,2.86c-3.97-0.26-7.95-1.26-11.61-2.81c-4.21-1.78-8.05-4.34-11.34-7.51
			c-1.39-1.34-3.52,0.78-2.12,2.12c6.43,6.2,14.8,10.12,23.68,11.08c4.15,0.45,8.7,0.18,12.37-2c3.83-2.27,5.77-6.29,7.06-10.39
			c1.74-5.54,3.14-11.19,4.69-16.79C318.11,268.13,315.22,267.33,314.7,269.19L314.7,269.19z"/>
	</g>
</g>
<g>
	<g>
		<path class="st0" d="M315.72,283.64c-0.41,5.18-1.57,10.43-4.27,14.93c-2.51,4.19-6.44,7.49-11.21,8.75
			c-2.54,0.67-5.23,0.69-7.75-0.11c-0.31-0.1-0.44,0.38-0.13,0.48c4.68,1.49,9.79,0.18,13.74-2.56c4.28-2.99,7.01-7.62,8.51-12.55
			c0.89-2.9,1.37-5.91,1.61-8.93C316.24,283.32,315.74,283.32,315.72,283.64L315.72,283.64z"/>
	</g>
</g>
<g>
	<g>
		<path class="st0" d="M308.07,285.18c-0.7,0.73-1.17,1.63-1.81,2.41c-0.6,0.73-1.31,1.36-2.11,1.87c-1.66,1.06-3.61,1.56-5.58,1.41
			c-1.2-0.09-2.37-0.43-3.43-0.97c-0.29-0.15-0.54,0.29-0.25,0.43c1.93,0.98,4.15,1.31,6.28,0.88c1.92-0.39,3.72-1.4,5.06-2.83
			c0.83-0.88,1.37-1.98,2.2-2.85C308.64,285.3,308.29,284.95,308.07,285.18L308.07,285.18z"/>
	</g>
</g>
<g>
	<g>
		<path class="st0" d="M278.28,297.62c-5.32-2.33-9.95-6.19-13.22-10.99c-0.91-1.34-1.71-2.74-2.4-4.2
			c-0.14-0.29-0.57-0.04-0.43,0.25c2.5,5.3,6.53,9.86,11.45,13.04c1.38,0.89,2.84,1.68,4.35,2.34
			C278.32,298.18,278.57,297.75,278.28,297.62L278.28,297.62z"/>
	</g>
</g>
<g>
	<g>
		<path class="st0" d="M306.42,317.25c-3.21,2.55-7.03,4.26-11.04,5.09c-4,0.83-8.2,0.79-12.18-0.17c-2.24-0.54-4.4-1.38-6.42-2.5
			c-0.28-0.16-0.53,0.28-0.25,0.43c3.66,2.03,7.79,3.13,11.97,3.3c4.18,0.17,8.39-0.58,12.24-2.22c2.16-0.92,4.19-2.12,6.03-3.59
			C307.02,317.41,306.67,317.05,306.42,317.25L306.42,317.25z"/>
	</g>
</g>
<g>
	<path class="st0" d="M376.39,224.45c-0.11,0.01-0.22,0.03-0.35,0.04c-0.87,0.1-1.51,0.21-1.92,0.3c-0.4,0.09-0.56,0.29-0.5,0.58
		c0.02,0.07,0.07,0.23,0.15,0.46c0.89,2.4,1.82,5.7,2.78,9.89c0.24,1.03,0.57,2.58,0.99,4.63c0.43,2.05,0.75,3.59,0.99,4.61
		c0.09,0.38,0.15,0.6,0.2,0.65c0.1,0.12,0.33,0.17,0.66,0.15c0.34-0.02,0.98-0.12,1.85-0.3L376.39,224.45z"/>
	<path class="st0" d="M377.63,222.22c2.89-0.66,4.04-2.28,3.45-4.85c-0.26-1.14-0.92-1.97-1.99-2.5c-1-0.5-2.08-0.62-3.23-0.36
		c-1.18,0.27-2.11,0.84-2.8,1.71c-0.75,0.95-0.99,2-0.72,3.15c0.28,1.21,0.94,2.07,1.99,2.57
		C375.29,222.42,376.39,222.5,377.63,222.22z"/>
	<path class="st0" d="M386.61,243.53c-0.24-1.06-0.63-2.66-1.16-4.78c-0.53-2.12-0.92-3.72-1.17-4.8
		c-0.87-3.79-1.47-7.17-1.81-10.12c-0.02-0.23-0.04-0.37-0.05-0.43c-0.07-0.3-0.28-0.4-0.63-0.32c-0.38,0.09-0.93,0.25-1.63,0.47
		l4.85,21.03c0.55-0.15,0.94-0.27,1.18-0.37C386.54,244.07,386.68,243.84,386.61,243.53z"/>
</g>
<g>
	<g>
		<path class="st0" d="M284.46,137.31c3.63-0.59,6.22-3.55,7.97-6.59c2.04-3.54,3.22-7.55,3.49-11.62c0.52-7.88-3-15.07-5.68-22.25
			c-2.67-7.16-4.23-14.81,0.11-21.68c4.37-6.9,12.12-10.42,19.8-12.24c9.9-2.35,20.27-2.38,29.88-5.98
			c1.19-0.45,0.68-2.38-0.53-1.93c-15.53,5.82-35.39,2.36-47.82,15.28c-2.48,2.58-4.45,5.7-5.42,9.16
			c-0.98,3.48-0.87,7.15-0.14,10.67c1.55,7.51,5.6,14.23,7.23,21.72c1.01,4.62,0.78,9.38-0.8,13.85c-1.39,3.96-4.06,8.94-8.62,9.68
			C282.66,135.58,283.2,137.51,284.46,137.31L284.46,137.31z"/>
	</g>
</g>
<g>
	<g>
		<path class="st0" d="M289.84,141.36c4.14-2.89,9.59-2.09,13.91-0.02c4.83,2.32,8.83,6,13.54,8.53c8.52,4.58,19.65,5,27.25-1.61
			c3.77-3.28,6.23-7.97,6.39-12.99c0.04-1.29-1.96-1.29-2,0c-0.14,4.46-2.36,8.53-5.66,11.46c-3.59,3.19-8.31,4.66-13.07,4.59
			c-5.24-0.07-10.13-1.93-14.51-4.72c-4.14-2.64-7.97-5.88-12.58-7.7c-4.57-1.81-10.08-2.19-14.27,0.74
			C287.78,140.36,288.78,142.1,289.84,141.36L289.84,141.36z"/>
	</g>
</g>
<g>
	<g>
		<path class="st0" d="M307.96,135.36c4.23-1.57,8.01,1.45,11.09,3.99c3.01,2.48,6.21,4.83,10.03,5.89
			c3.49,0.96,7.57,0.78,10.63-1.31c2.72-1.85,4.51-5,4.23-8.33c-0.11-1.27-2.11-1.28-2,0c0.29,3.48-2.08,6.53-5.31,7.64
			c-3.6,1.23-7.51,0.3-10.75-1.48c-5.62-3.08-11.14-11.03-18.44-8.33C306.23,133.87,306.75,135.81,307.96,135.36L307.96,135.36z"/>
	</g>
</g>
<g>
	<g>
		<path class="st0" d="M301.52,96.76c-5.34-6.03-5.67-15.2-0.64-21.53c1.21-1.52,2.71-2.99,4.54-3.71c1.95-0.76,4.09-0.68,6.14-0.71
			c3.25-0.04,6.92-0.45,9.06-3.2c0.78-1-0.62-2.43-1.41-1.41c-2.66,3.41-7.55,2.36-11.3,2.75c-4.29,0.44-7.46,3.09-9.73,6.64
			c-4.52,7.09-3.61,16.34,1.92,22.59C300.96,99.14,302.37,97.73,301.52,96.76L301.52,96.76z"/>
	</g>
</g>
<g>
	<g>
		<path class="st0" d="M305.2,122.07c2.6-3.91,8.03-1.71,11.38-0.3c4.05,1.7,8.17,3.33,12.56,3.9c3.73,0.48,7.6,0.12,11.02-1.49
			c3.65-1.72,6.06-4.96,8.34-8.17c0.75-1.05-0.99-2.05-1.73-1.01c-2.46,3.46-5.07,6.75-9.27,8.08c-4.02,1.27-8.3,0.86-12.29-0.26
			c-2.17-0.61-4.29-1.41-6.38-2.26c-1.98-0.81-3.94-1.76-6.03-2.29c-3.4-0.85-7.27-0.31-9.34,2.79
			C302.76,122.13,304.49,123.13,305.2,122.07L305.2,122.07z"/>
	</g>
</g>
<g>
	<g>
		<path class="st0" d="M304.65,106.87c7.86-4.35,11.14-15.1,7.1-23.12c-0.25-0.49-0.64-0.97-0.83-1.48
			c-0.32-0.85,0.03-1.4,0.51-2.09c0.8-1.15,1.82-2.17,2.96-2.99c2.12-1.52,4.7-2.46,7.32-2.55c3.01-0.11,5.75,1.21,8.72,1.44
			c2.62,0.21,5.2-0.65,7.4-2.03c2.54-1.59,4.66-3.78,6.59-6.06c2.39-2.82,4.65-5.76,6.82-8.75c0.76-1.04-0.98-2.04-1.73-1.01
			c-1.99,2.75-4.07,5.45-6.25,8.05c-1.72,2.05-3.57,4.09-5.79,5.62c-2.43,1.68-5.16,2.57-8.11,2.03c-2.77-0.51-5.34-1.48-8.2-1.26
			c-4.68,0.36-9.72,3.02-11.96,7.3c-1.23,2.36,0.71,4.16,1.46,6.32c0.73,2.09,0.95,4.32,0.75,6.52c-0.47,5.06-3.3,9.86-7.78,12.34
			C302.51,105.76,303.52,107.49,304.65,106.87L304.65,106.87z"/>
	</g>
</g>
<g>
	<g>
		<path class="st0" d="M235.3,150.37c-1.17,0.49-2.27,0.6-3.43,0.25c-0.36-0.11-0.48-0.16-0.78-0.32c-0.26-0.13-0.5-0.28-0.75-0.44
			c-0.46-0.3-0.79-0.55-0.96-1c-0.19-0.49-0.35-1.27-0.47-1.86c-0.13-0.65-0.2-1.3-0.16-1.97c0-0.08,0.05-0.45,0.01-0.2
			c0.02-0.15,0.06-0.3,0.09-0.45c0.04-0.15,0.09-0.29,0.13-0.44c0.02-0.05,0.04-0.1,0.05-0.14c-0.04,0.1-0.04,0.11,0,0.01
			c0.06-0.11,0.12-0.22,0.18-0.33c0.01-0.01,0.27-0.36,0.12-0.18c0.1-0.11,0.2-0.22,0.31-0.32c0.21-0.2-0.09,0.05,0.18-0.12
			c0.68-0.44,0.96-1.33,0.54-2.05c-0.4-0.68-1.37-0.98-2.05-0.54c-1.51,0.97-2.33,2.57-2.53,4.32c-0.11,0.98,0,1.96,0.17,2.92
			c0.16,0.85,0.35,1.72,0.67,2.52c0.7,1.7,2.42,2.77,4.1,3.38c1.7,0.62,3.7,0.56,5.36-0.14c0.75-0.31,1.28-0.99,1.05-1.85
			C236.95,150.72,236.06,150.06,235.3,150.37L235.3,150.37z"/>
	</g>
</g>
</svg>
