<?xml version="1.0" encoding="utf-8"?>
<!-- Generator: Adobe Illustrator 24.3.0, SVG Export Plug-In . SVG Version: 6.00 Build 0)  -->
<svg version="1.1" id="Layer_1" xmlns="http://www.w3.org/2000/svg" xmlns:xlink="http://www.w3.org/1999/xlink" x="0px" y="0px"
	 viewBox="0 0 500 500" style="enable-background:new 0 0 500 500;" xml:space="preserve">
<style type="text/css">
	.st0{fill:#F3F3F3;}
	.st1{fill:#4E4E4E;}
</style>
<rect y="112.17" class="st0" width="500" height="242.12"/>
<g>
	<path class="st1" d="M86.83,184.1L86.83,184.1c0.02,4.12,4.96,6.26,7.93,3.41c7.42-7.12,16.17-10.7,26.24-10.75
		c11.4-0.05,21.24,4.45,29.51,13.52c8.27,9.06,12.44,19.91,12.49,32.54c0.06,12.78-4.06,23.82-12.36,33.13
		c-8.3,9.32-18.11,14-29.44,14.05c-6.56,0.03-12.85-1.65-18.89-5.05c-2.53-1.42-4.88-3.12-7.04-5.08c-3.04-2.76-7.89-0.62-7.88,3.49
		l0.18,41.04c0.01,2.61-2.09,4.73-4.7,4.75l-9.17,0.04c-2.61,0.01-4.73-2.09-4.75-4.7l-0.54-120.28c-0.01-2.61,2.09-4.73,4.7-4.75
		l8.96-0.04C84.69,179.39,86.82,181.49,86.83,184.1z M143.52,222.9c-0.04-7.78-2.99-14.56-8.85-20.35
		c-5.87-5.79-12.75-8.67-20.66-8.63c-8.05,0.04-15,2.96-20.85,8.76c-5.85,5.81-8.76,12.64-8.72,20.48
		c0.04,8.07,2.97,15.05,8.8,20.94c5.83,5.9,12.7,8.83,20.61,8.79c8.19-0.04,15.2-2.99,21.01-8.87
		C140.67,238.15,143.56,231.11,143.52,222.9z"/>
	<path class="st1" d="M236.81,180.54l14.38-0.06c1.17-0.01,2.13,0.94,2.13,2.11l0.38,84.06c0.01,1.17-0.94,2.13-2.11,2.13
		l-14.38,0.06c-1.17,0.01-2.13-0.94-2.13-2.11l-0.04-9.12c-0.01-1.99-2.49-2.84-3.76-1.3c-8.31,10.05-18.28,15.1-29.9,15.15
		c-11.63,0.05-21.59-4.47-29.87-13.57c-8.28-9.1-12.45-20.17-12.51-33.23c-0.06-12.34,4.05-23.16,12.32-32.43
		c8.27-9.28,18.01-13.95,29.21-14c6.92-0.03,13.5,1.83,19.72,5.58c4.18,2.52,7.74,5.57,10.67,9.12c1.3,1.58,3.82,0.75,3.81-1.29
		l-0.04-8.99C234.69,181.5,235.63,180.54,236.81,180.54z M237.45,224.95c-0.04-8.06-2.96-14.96-8.78-20.68
		c-5.81-5.72-12.76-8.56-20.84-8.52c-7.86,0.04-14.72,2.92-20.55,8.66c-5.84,5.74-8.74,12.46-8.7,20.16
		c0.04,8.06,2.73,14.94,8.08,20.65c5.71,6.09,13.94,9.54,22.29,9.28c7.71-0.23,14.35-3.17,19.91-8.8
		C234.62,239.86,237.49,232.95,237.45,224.95z"/>
	<path class="st1" d="M336.31,134.01l16.63-0.07c0.56,0,1.01,0.45,1.01,1.01l0.62,136.92c0,0.56-0.45,1.01-1.01,1.01l-16.41,0.07
		c-0.56,0-1.01-0.45-1.01-1.01l-0.06-14.14c0-0.99-1.26-1.35-1.84-0.54c-8.6,12.15-19.61,18.25-33.05,18.31
		c-11.65,0.05-21.66-4.51-30.03-13.67c-8.37-9.17-12.58-20.21-12.64-33.13c-0.06-12.63,4.13-23.52,12.56-32.65
		c8.43-9.14,18.51-13.73,30.23-13.79c7.02-0.03,13.58,1.87,19.68,5.69c5.11,3.21,9.36,7.24,12.75,12.11
		c0.58,0.83,1.86,0.46,1.86-0.55l-0.29-64.56C335.31,134.47,335.76,134.01,336.31,134.01z M337.89,228.22
		c-0.13-7.75-3.1-14.47-8.89-20.16c-5.89-5.79-12.89-8.67-21-8.63c-8.4,0.04-15.5,2.9-21.31,8.61c-5.8,5.7-8.69,12.65-8.65,20.86
		c0.04,7.85,3.04,14.71,9,20.56c5.96,5.86,12.89,8.78,20.79,8.74c8.01-0.04,14.85-2.66,20.53-7.87
		C334.49,244.7,338.04,236.54,337.89,228.22z"/>
	<g>
		<path class="st1" d="M378.16,169.68c3.43-0.02,6.43-1.14,9.03-3.38c3.36-2.9,5.3-7.37,5.02-11.82c-0.22-3.47-1.63-6.5-4.21-9.08
			c-2.81-2.8-6.13-4.2-9.96-4.18c-3.9,0.02-7.26,1.44-10.08,4.27c-2.82,2.83-4.23,6.18-4.21,10.03c0.02,3.93,1.45,7.27,4.3,10.04
			C370.89,168.32,374.26,169.7,378.16,169.68z"/>
		<path class="st1" d="M404.59,272.19l-6.34-6.28c-0.4-0.4-0.95-0.62-1.52-0.62l-8.99,0.04l-0.35-78.01c-0.01-1.6-1.31-2.9-2.9-2.89
			l-12.52,0.06c-1.59,0.01-2.88,1.31-2.87,2.92l0.35,78.01l-31.18,0.14c-1.18,0.01-2.14,0.97-2.13,2.15l0.03,6.31
			c0.01,1.18,0.97,2.14,2.15,2.13l64.78-0.29C405,275.85,405.94,273.54,404.59,272.19z"/>
	</g>
	
		<rect x="353.31" y="260.09" transform="matrix(-4.504392e-03 -1 1 -4.504392e-03 96.1021 630.5862)" class="st1" width="17.23" height="14.74"/>
	<path class="st1" d="M413.69,304.12l-5.5-13.09l-55.59,0.25l-7.3,0.03l-130.88,0.59l-25.38,0.11l-123.33,0.56l-0.38-83.54
		c-0.01-2.42-1.98-4.37-4.4-4.36l-4.35,0.02c-2.42,0.01-4.37,1.98-4.36,4.4l0.42,92.28c0.01,2.42,1.98,4.37,4.4,4.36l2.61-0.01
		l1.75-0.01l127.71-0.58l25.38-0.11l130.88-0.59v0L413.69,304.12z"/>
</g>
</svg>
